# This file uses centimeters as units for non-parametric coordinates.

mtllib RAMP.mtl
g default
v 1.766023 -1.480409 -10.258709
v 1.766023 1.480409 -10.258709
v 1.766023 1.480409 -10.371925
v 1.766023 -1.480409 -10.371925
v 0.000000 -1.480409 -10.258709
v 0.000000 1.480409 -10.258709
v 0.000000 1.480409 -10.371925
v 0.000000 -1.480409 -10.371925
vt 0.776579 0.734554
vt 0.776579 0.747786
vt 0.570171 0.745116
vt 0.776579 0.858142
vt 0.570171 0.858142
vt 0.570171 0.747786
vt 0.570171 0.734554
vt 0.776579 0.747786
vt 0.776579 0.734554
vt 0.570171 0.734554
vt 0.570171 0.747786
vt 0.570171 0.737224
vt 0.776579 0.737224
vt 0.570171 0.735027
vt 0.776579 0.735027
vt 0.570171 0.858142
vt 0.776579 0.858142
vt 0.776579 0.735027
vt 0.570171 0.735027
vt 0.776579 0.745116
vn 1.000000 0.000000 0.000000
vn 1.000000 0.000000 0.000000
vn 1.000000 0.000000 0.000000
vn 1.000000 0.000000 0.000000
vn 0.000000 0.000000 1.000000
vn 0.000000 0.000000 1.000000
vn 0.000000 0.000000 1.000000
vn 0.000000 0.000000 1.000000
vn 0.000000 1.000000 0.000000
vn 0.000000 1.000000 0.000000
vn 0.000000 1.000000 0.000000
vn 0.000000 1.000000 0.000000
vn 0.000000 0.000000 -1.000000
vn 0.000000 0.000000 -1.000000
vn 0.000000 0.000000 -1.000000
vn 0.000000 0.000000 -1.000000
vn 0.000000 -1.000000 0.000000
vn 0.000000 -1.000000 0.000000
vn 0.000000 -1.000000 0.000000
vn 0.000000 -1.000000 0.000000
s off
g pCube5
usemtl initialShadingGroup
f 1/3/1 4/12/2 3/13/3 2/20/4
f 6/4/5 5/5/6 1/14/7 2/15/8
f 7/1/9 6/2/10 2/6/11 3/7/12
f 8/16/13 7/17/14 3/18/15 4/19/16
f 5/8/17 8/9/18 4/10/19 1/11/20
