# This file uses centimeters as units for non-parametric coordinates.

mtllib PIPE.mtl
g default
v 2.080152 -1.000000 -7.701209
v 2.080152 -0.707107 -6.994102
v 2.080152 -0.000000 -6.701209
v 2.080152 0.707107 -6.994102
v 2.080152 1.000000 -7.701209
v 0.080152 -1.000000 -7.701208
v 0.080152 -0.707107 -6.994101
v 0.080152 0.000000 -6.701208
v 0.080152 0.707107 -6.994101
v 0.080152 1.000000 -7.701208
vt 0.086041 0.873119
vt 0.086045 0.904032
vt 0.005267 0.904044
vt 0.005262 0.873131
vt 0.086050 0.934945
vt 0.005271 0.934956
vt 0.086054 0.965857
vt 0.005276 0.965869
vt 0.086059 0.996770
vt 0.005280 0.996781
vn 0.000000 -0.923880 0.382683
vn 0.000000 -0.923880 0.382683
vn 0.000000 -0.923880 0.382683
vn 0.000000 -0.923880 0.382683
vn 0.000000 -0.382684 0.923879
vn 0.000000 -0.382684 0.923879
vn 0.000000 -0.382684 0.923879
vn 0.000000 -0.382684 0.923879
vn 0.000000 0.382684 0.923880
vn 0.000000 0.382684 0.923879
vn 0.000000 0.382684 0.923880
vn 0.000000 0.382684 0.923879
vn 0.000000 0.923880 0.382684
vn 0.000000 0.923880 0.382684
vn 0.000000 0.923880 0.382684
vn 0.000000 0.923880 0.382684
s off
g pCylinder1
usemtl initialShadingGroup
f 1/1/1 2/2/2 7/3/3 6/4/4
f 2/2/5 3/5/6 8/6/7 7/3/8
f 3/5/9 4/7/10 9/8/11 8/6/12
f 4/7/13 5/9/14 10/10/15 9/8/16
