# This file uses centimeters as units for non-parametric coordinates.

mtllib barrierBox.mtl
g default
v 9.587753 2.136577 1.480409
v 9.587753 5.097395 1.480409
v 9.587753 5.097395 -1.480409
v 9.587753 2.136577 -1.480409
v 7.099575 2.136577 1.480409
v 7.099575 5.097395 1.480409
v 7.099575 5.097395 -1.480409
v 7.099575 2.136577 -1.480409
v 4.611396 2.136577 1.480409
v 4.611396 5.097395 1.480409
v 4.611396 5.097395 -1.480409
v 4.611396 2.136577 -1.480409
vt 0.773102 0.678954
vt 0.773102 0.438940
vt 0.741393 0.438020
vt 0.772505 0.688038
vt 0.772505 0.438020
vt 0.988819 0.438940
vt 0.988818 0.678953
vt 0.760257 0.438020
vt 0.760257 0.688038
vt 0.988055 0.688038
vt 0.988055 0.438020
vt 0.987868 0.438020
vt 0.987868 0.688038
vt 0.988055 0.438020
vt 0.988055 0.688038
vt 0.773866 0.438020
vt 0.773866 0.688038
vt 0.988055 0.688038
vt 0.988055 0.438020
vt 0.741393 0.688038
vt 0.741393 0.438020
vt 0.987868 0.438020
vt 0.987868 0.688038
vt 0.741393 0.688038
vt 0.772505 0.688038
vt 0.772505 0.438020
vt 0.988055 0.438020
vt 0.988055 0.688038
vt 0.773102 0.678954
vt 0.773102 0.438940
vt 0.988819 0.438940
vt 0.988818 0.678953
vt 0.773866 0.438020
vt 0.773866 0.688038
vt 0.988055 0.688038
vt 0.988055 0.438020
vt 0.760257 0.438020
vt 0.760257 0.688038
vt 0.988055 0.688038
vt 0.988055 0.438020
vn -1.000000 0.000000 0.000000
vn -1.000000 0.000000 0.000000
vn -1.000000 0.000000 0.000000
vn -1.000000 0.000000 0.000000
vn 0.000000 0.000000 -1.000000
vn 0.000000 0.000000 -1.000000
vn 0.000000 0.000000 -1.000000
vn 0.000000 0.000000 -1.000000
vn 0.000000 -1.000000 0.000000
vn 0.000000 -1.000000 0.000000
vn 0.000000 -1.000000 0.000000
vn 0.000000 -1.000000 0.000000
vn 0.000000 0.000000 1.000000
vn 0.000000 0.000000 1.000000
vn 0.000000 0.000000 1.000000
vn 0.000000 0.000000 1.000000
vn 0.000000 1.000000 0.000000
vn 0.000000 1.000000 0.000000
vn 0.000000 1.000000 0.000000
vn 0.000000 1.000000 0.000000
vn 1.000000 0.000000 0.000000
vn 1.000000 0.000000 0.000000
vn 1.000000 0.000000 0.000000
vn 1.000000 0.000000 0.000000
vn 0.000000 0.000000 -1.000000
vn 0.000000 0.000000 -1.000000
vn 0.000000 0.000000 -1.000000
vn 0.000000 0.000000 -1.000000
vn 0.000000 -1.000000 0.000000
vn 0.000000 -1.000000 0.000000
vn 0.000000 -1.000000 0.000000
vn 0.000000 -1.000000 0.000000
vn 0.000000 0.000000 1.000000
vn 0.000000 0.000000 1.000000
vn 0.000000 0.000000 1.000000
vn 0.000000 0.000000 1.000000
vn 0.000000 1.000000 0.000000
vn 0.000000 1.000000 0.000000
vn 0.000000 1.000000 0.000000
vn 0.000000 1.000000 0.000000
s off
g polySurface6
usemtl lambert3SG
f 1/3/1 2/20/2 3/13/3 4/12/4
f 6/4/5 2/15/6 1/14/7 5/5/8
f 7/1/9 3/7/10 2/6/11 6/2/12
f 8/16/13 4/19/14 3/18/15 7/17/16
f 5/8/17 1/11/18 4/10/19 8/9/20
f 9/21/21 12/22/22 11/23/23 10/24/24
f 6/25/25 5/26/26 9/27/27 10/28/28
f 7/29/29 6/30/30 10/31/31 11/32/32
f 8/33/33 7/34/34 11/35/35 12/36/36
f 5/37/37 8/38/38 12/39/39 9/40/40
