# This file uses centimeters as units for non-parametric coordinates.

mtllib barrierWallFIX.mtl
g default
v 5.006896 2.914173 -4.303075
v 5.006896 4.319799 -4.303075
v 5.006896 4.319799 -4.813801
v 5.006896 2.914173 -4.813801
v 0.000000 2.914173 -4.303075
v 0.000000 4.319799 -4.303075
v 0.000000 4.319799 -4.813802
v 0.000000 2.914173 -4.813802
v -5.006896 2.914173 -4.303075
v -5.006896 4.319799 -4.303075
v -5.006896 4.319799 -4.813802
v -5.006896 2.914173 -4.813802
vt 0.212331 0.388285
vt 0.900426 0.388285
vt 0.980675 0.127026
vt 0.212331 0.124562
vt 0.900426 0.124563
vt 0.900426 0.318096
vt 0.212331 0.318096
vt 0.212331 0.318096
vt 0.900426 0.318096
vt 0.900426 0.388285
vt 0.212331 0.388285
vt 0.903351 0.126773
vt 0.902576 0.318454
vt 0.900426 0.317736
vt 0.212331 0.317737
vt 0.212331 0.317737
vt 0.900426 0.317736
vt 0.900426 0.124563
vt 0.212331 0.124562
vt 0.979900 0.318708
vt 0.980675 0.127026
vt 0.903351 0.126773
vt 0.902576 0.318454
vt 0.979900 0.318708
vt 0.212331 0.317737
vt 0.212331 0.124562
vt 0.900426 0.124563
vt 0.900426 0.317736
vt 0.212331 0.318096
vt 0.212331 0.388285
vt 0.900426 0.388285
vt 0.900426 0.318096
vt 0.212331 0.124562
vt 0.212331 0.317737
vt 0.900426 0.317736
vt 0.900426 0.124563
vt 0.212331 0.388285
vt 0.212331 0.318096
vt 0.900426 0.318096
vt 0.900426 0.388285
vn 1.000000 0.000000 0.000000
vn 1.000000 0.000000 0.000000
vn 1.000000 0.000000 0.000000
vn 1.000000 0.000000 0.000000
vn 0.000000 0.000000 1.000000
vn 0.000000 0.000000 1.000000
vn 0.000000 0.000000 1.000000
vn 0.000000 0.000000 1.000000
vn 0.000000 1.000000 0.000000
vn 0.000000 1.000000 0.000000
vn 0.000000 1.000000 0.000000
vn 0.000000 1.000000 0.000000
vn 0.000000 0.000000 -1.000000
vn 0.000000 0.000000 -1.000000
vn 0.000000 0.000000 -1.000000
vn 0.000000 0.000000 -1.000000
vn 0.000000 -1.000000 0.000000
vn 0.000000 -1.000000 0.000000
vn 0.000000 -1.000000 0.000000
vn 0.000000 -1.000000 0.000000
vn -1.000000 0.000000 0.000000
vn -1.000000 0.000000 0.000000
vn -1.000000 0.000000 0.000000
vn -1.000000 0.000000 0.000000
vn -0.000000 0.000000 1.000000
vn -0.000000 0.000000 1.000000
vn -0.000000 0.000000 1.000000
vn -0.000000 0.000000 1.000000
vn 0.000000 1.000000 0.000000
vn 0.000000 1.000000 0.000000
vn 0.000000 1.000000 0.000000
vn 0.000000 1.000000 0.000000
vn 0.000000 0.000000 -1.000000
vn 0.000000 0.000000 -1.000000
vn 0.000000 0.000000 -1.000000
vn 0.000000 0.000000 -1.000000
vn 0.000000 -1.000000 0.000000
vn 0.000000 -1.000000 0.000000
vn 0.000000 -1.000000 0.000000
vn 0.000000 -1.000000 0.000000
s off
g polySurface10
usemtl lambert3SG
f 1/3/1 4/12/2 3/13/3 2/20/4
f 6/15/5 5/4/6 1/5/7 2/14/8
f 7/7/9 6/1/10 2/2/11 3/6/12
f 8/19/13 7/16/14 3/17/15 4/18/16
f 5/11/17 8/8/18 4/9/19 1/10/20
f 9/21/21 10/24/22 11/23/23 12/22/24
f 6/25/25 10/28/26 9/27/27 5/26/28
f 7/29/29 11/32/30 10/31/31 6/30/32
f 8/33/33 12/36/34 11/35/35 7/34/36
f 5/37/37 9/40/38 12/39/39 8/38/40
