# This file uses centimeters as units for non-parametric coordinates.

mtllib laser.mtl
g default
v 8.602630 3.565488 -5.657410
v 8.602630 3.580572 -5.693825
v 8.602630 3.616986 -5.708908
v 8.602630 3.653401 -5.693825
v 8.602630 3.668484 -5.657410
v -6.442327 3.565488 -5.657410
v -6.442327 3.580572 -5.693825
v -6.442327 3.616986 -5.708908
v -6.442327 3.653401 -5.693825
v -6.442327 3.668484 -5.657410
v 8.602630 3.580572 -5.620996
v 8.602630 3.616986 -5.605912
v 8.602630 3.653401 -5.620996
v -6.442327 3.580572 -5.620996
v -6.442327 3.616986 -5.605912
v -6.442327 3.653401 -5.620996
vt 0.944573 0.403929
vt 0.944622 0.410722
vt 0.034648 0.410724
vt 0.034599 0.403932
vt 0.944671 0.417514
vt 0.034697 0.417517
vt 0.944722 0.424307
vt 0.034746 0.424309
vt 0.944771 0.431099
vt 0.034796 0.431101
vt 0.944573 0.403929
vt 0.944622 0.410722
vt 0.034648 0.410724
vt 0.034599 0.403932
vt 0.944671 0.417514
vt 0.034697 0.417517
vt 0.944722 0.424307
vt 0.034746 0.424309
vt 0.944771 0.431099
vt 0.034796 0.431101
vn -0.000000 1.000000 0.000000
vn -0.000000 0.707107 0.707107
vn -0.000000 0.707107 0.707107
vn -0.000000 1.000000 0.000000
vn -0.000000 -0.000000 1.000000
vn -0.000000 -0.000000 1.000000
vn -0.000000 -0.707107 0.707107
vn -0.000000 -0.707107 0.707107
vn -0.000000 -1.000000 0.000000
vn -0.000000 -1.000000 0.000000
vn -0.000000 0.707107 -0.707107
vn -0.000000 0.707107 -0.707107
vn -0.000000 0.000000 -1.000000
vn -0.000000 0.000000 -1.000000
vn -0.000000 -0.707107 -0.707107
vn -0.000000 -0.707107 -0.707107
s 1
g polySurface5
usemtl lambert3SG
f 1/1/1 2/2/2 7/3/3 6/4/4
f 2/2/2 3/5/5 8/6/6 7/3/3
f 3/5/5 4/7/7 9/8/8 8/6/6
f 4/7/7 5/9/9 10/10/10 9/8/8
f 1/11/1 6/14/4 14/13/11 11/12/12
f 11/12/12 14/13/11 15/16/13 12/15/14
f 12/15/14 15/16/13 16/18/15 13/17/16
f 13/17/16 16/18/15 10/20/10 5/19/9
