# This file uses centimeters as units for non-parametric coordinates.

mtllib TRASHCAN.mtl
g default
v 0.068694 2.616986 2.774440
v 0.068694 2.616986 4.241590
v 0.068694 4.616986 2.508015
v 0.068694 4.616986 4.508015
v 0.068694 2.616986 3.508015
v 0.068694 4.823406 2.682220
v 0.068694 4.823406 4.333809
v 0.068694 4.573256 2.382302
v 0.068694 4.573256 4.633727
v 0.068694 4.823406 3.508015
v -0.514540 2.616986 2.989299
v -0.514540 2.616986 4.026731
v -0.729399 2.616986 3.508015
v -0.569718 4.616986 2.800908
v -0.569718 4.616986 4.215122
v -0.862612 4.616986 3.508015
v -0.596496 4.823406 2.924090
v -0.596496 4.823406 4.091940
v -0.838365 4.823406 3.508015
v -0.744164 4.573256 2.712016
v -0.744164 4.573256 4.304014
v -1.073878 4.573256 3.508015
v 0.068694 4.731468 4.582320
v -0.698816 4.731468 4.267663
v -1.013473 4.731468 3.508015
v -0.698816 4.731468 2.748366
v 0.068694 4.731468 2.433710
v 0.651928 2.616986 2.989299
v 0.651928 2.616986 4.026731
v 0.866787 2.616986 3.508015
v 0.707107 4.616986 2.800908
v 0.707107 4.616986 4.215122
v 1.000000 4.616986 3.508015
v 0.733884 4.823406 2.924090
v 0.733884 4.823406 4.091940
v 0.975754 4.823406 3.508015
v 0.881552 4.573256 2.712016
v 0.881553 4.573256 4.304014
v 1.211266 4.573256 3.508015
v 0.836205 4.731468 4.267663
v 1.150861 4.731468 3.508015
v 0.836205 4.731468 2.748366
vt 0.141494 0.445374
vt 0.181244 0.445374
vt 0.199078 0.573638
vt 0.154494 0.573638
vt 0.030156 0.445374
vt 0.069906 0.445374
vt 0.056906 0.573638
vt 0.012322 0.573638
vt 0.105700 0.445374
vt 0.105700 0.573638
vt 0.206743 0.575802
vt 0.176306 0.650672
vt 0.106298 0.575802
vt 0.037229 0.653654
vt 0.005358 0.575802
vt 0.106298 0.681868
vt 0.153081 0.626943
vt 0.177443 0.650730
vt 0.208011 0.580803
vt 0.174249 0.575802
vt 0.037852 0.575802
vt 0.004431 0.581000
vt 0.036021 0.653681
vt 0.059020 0.626155
vt 0.106414 0.683448
vt 0.106050 0.648433
vt 0.106050 0.575802
vt 0.019802 0.574882
vt 0.045217 0.639422
vt 0.106133 0.666404
vt 0.167650 0.639867
vt 0.192287 0.574883
vt 0.141494 0.445374
vt 0.181244 0.445374
vt 0.199078 0.573638
vt 0.154494 0.573638
vt 0.030156 0.445374
vt 0.069906 0.445374
vt 0.056906 0.573638
vt 0.012322 0.573638
vt 0.105700 0.445374
vt 0.105700 0.573638
vt 0.206743 0.575802
vt 0.176306 0.650672
vt 0.106298 0.575802
vt 0.037229 0.653654
vt 0.005358 0.575802
vt 0.106298 0.681868
vt 0.153081 0.626943
vt 0.167650 0.639867
vt 0.192287 0.574883
vt 0.174249 0.575802
vt 0.037852 0.575802
vt 0.019802 0.574882
vt 0.045217 0.639422
vt 0.059020 0.626155
vt 0.106133 0.666404
vt 0.106050 0.648433
vt 0.106050 0.575802
vt 0.004431 0.581000
vt 0.036021 0.653681
vt 0.106414 0.683448
vt 0.177443 0.650730
vt 0.208011 0.580803
vn 0.381486 0.109626 0.917851
vn 0.381486 0.109626 0.917851
vn 0.381486 0.109626 0.917851
vn 0.381486 0.109626 0.917851
vn 0.381486 0.109626 -0.917851
vn 0.381486 0.109626 -0.917851
vn 0.381486 0.109626 -0.917851
vn 0.381486 0.109626 -0.917851
vn 0.922135 0.061420 -0.381961
vn 0.922135 0.061420 -0.381961
vn 0.922135 0.061420 -0.381961
vn 0.922135 0.061420 -0.381961
vn 0.922135 0.061420 0.381961
vn 0.922135 0.061420 0.381961
vn 0.922135 0.061420 0.381961
vn 0.922135 0.061420 0.381961
vn 0.000000 1.000000 0.000000
vn 0.000000 1.000000 -0.000000
vn 0.000000 1.000000 -0.000000
vn 0.000000 1.000000 0.000000
vn 0.000000 1.000000 0.000000
vn 0.000000 1.000000 -0.000000
vn 0.141670 -0.920281 0.364709
vn 0.273102 -0.680859 0.679593
vn 0.282131 -0.654957 0.701023
vn 0.141670 -0.920281 0.364709
vn 0.141669 -0.920281 -0.364709
vn 0.282131 -0.654956 -0.701024
vn 0.273102 -0.680858 -0.679594
vn 0.141669 -0.920281 -0.364709
vn 0.456475 -0.869414 -0.189078
vn 0.765847 -0.559328 -0.317223
vn 0.747914 -0.587070 -0.309795
vn 0.456475 -0.869414 -0.189078
vn 0.456475 -0.869414 0.189078
vn 0.747914 -0.587070 0.309795
vn 0.765847 -0.559328 0.317223
vn 0.456475 -0.869414 0.189078
vn 0.000000 -1.000000 0.000000
vn 0.000000 -1.000000 0.000000
vn 0.000000 -1.000000 -0.000000
vn 0.000000 -1.000000 0.000000
vn 0.000000 -1.000000 0.000000
vn 0.000000 -1.000000 0.000000
vn 0.360531 -0.296904 -0.884232
vn 0.360531 -0.296904 -0.884232
vn 0.871267 -0.332646 -0.360890
vn 0.871267 -0.332646 -0.360890
vn 0.871267 -0.332646 0.360890
vn 0.871267 -0.332646 0.360890
vn 0.360531 -0.296905 0.884231
vn 0.360531 -0.296905 0.884231
vn -0.381486 0.109626 0.917851
vn -0.381486 0.109626 0.917851
vn -0.381486 0.109626 0.917851
vn -0.381486 0.109626 0.917851
vn -0.381486 0.109626 -0.917851
vn -0.381486 0.109626 -0.917851
vn -0.381486 0.109626 -0.917851
vn -0.381486 0.109626 -0.917851
vn -0.922135 0.061420 -0.381961
vn -0.922135 0.061420 -0.381961
vn -0.922135 0.061420 -0.381961
vn -0.922135 0.061420 -0.381961
vn -0.922135 0.061420 0.381961
vn -0.922135 0.061420 0.381961
vn -0.922135 0.061420 0.381961
vn -0.922135 0.061420 0.381961
vn 0.000000 1.000000 0.000000
vn 0.000000 1.000000 0.000000
vn 0.000000 1.000000 -0.000000
vn 0.000000 1.000000 0.000000
vn 0.000000 1.000000 0.000000
vn 0.000000 1.000000 0.000000
vn -0.141670 -0.920281 0.364709
vn -0.141670 -0.920281 0.364709
vn -0.282131 -0.654956 0.701024
vn -0.273102 -0.680859 0.679593
vn -0.141669 -0.920281 -0.364709
vn -0.141669 -0.920281 -0.364709
vn -0.273102 -0.680858 -0.679594
vn -0.282131 -0.654956 -0.701024
vn -0.456475 -0.869414 -0.189079
vn -0.456475 -0.869414 -0.189079
vn -0.747914 -0.587070 -0.309796
vn -0.765847 -0.559328 -0.317224
vn -0.456475 -0.869414 0.189078
vn -0.456475 -0.869414 0.189078
vn -0.765846 -0.559328 0.317224
vn -0.747914 -0.587070 0.309796
vn 0.000000 -1.000000 0.000000
vn 0.000000 -1.000000 0.000000
vn 0.000000 -1.000000 0.000000
vn 0.000000 -1.000000 0.000000
vn 0.000000 -1.000000 0.000000
vn 0.000000 -1.000000 0.000000
vn -0.360531 -0.296904 -0.884232
vn -0.360531 -0.296904 -0.884232
vn -0.871266 -0.332646 -0.360890
vn -0.871266 -0.332646 -0.360890
vn -0.871267 -0.332645 0.360890
vn -0.871267 -0.332645 0.360890
vn -0.360531 -0.296905 0.884231
vn -0.360531 -0.296905 0.884231
s off
g polySurface8
usemtl lambert3SG
f 11/1/1 1/2/2 3/3/3 14/4/4
f 2/5/5 12/6/6 15/7/7 4/8/8
f 12/6/9 13/9/10 16/10/11 15/7/12
f 13/9/13 11/1/14 14/4/15 16/10/16
s 1
f 1/11/17 11/12/18 5/13/19
f 12/14/20 2/15/21 5/13/19
f 13/16/22 12/14/20 5/13/19
f 11/12/18 13/16/22 5/13/19
s 3
f 17/17/23 26/31/24 27/32/25 6/20/26
s 4
f 7/21/27 23/28/28 24/29/29 18/24/30
s 5
f 18/24/31 24/29/32 25/30/33 19/26/34
s 6
f 19/26/35 25/30/36 26/31/37 17/17/38
s 7
f 6/20/39 10/27/40 17/17/41
f 18/24/42 10/27/40 7/21/43
f 19/26/44 10/27/40 18/24/42
f 17/17/41 10/27/40 19/26/44
s 4
f 23/28/28 9/22/45 21/23/46 24/29/29
s 5
f 25/30/33 24/29/32 21/23/47 22/25/48
s 6
f 26/31/37 25/30/36 22/25/49 20/18/50
s 3
f 27/32/25 26/31/24 20/18/51 8/19/52
s off
f 28/33/53 31/36/54 3/35/55 1/34/56
f 2/37/57 4/40/58 32/39/59 29/38/60
f 29/38/61 32/39/62 33/42/63 30/41/64
f 30/41/65 33/42/66 31/36/67 28/33/68
s 9
f 1/43/69 5/45/70 28/44/71
f 29/46/72 5/45/70 2/47/73
f 30/48/74 5/45/70 29/46/72
f 28/44/71 5/45/70 30/48/74
s 11
f 34/49/75 6/52/76 27/51/77 42/50/78
s 12
f 7/53/79 35/56/80 40/55/81 23/54/82
s 13
f 35/56/83 36/58/84 41/57/85 40/55/86
s 14
f 36/58/87 34/49/88 42/50/89 41/57/90
s 15
f 6/52/91 34/49/92 10/59/93
f 35/56/94 7/53/95 10/59/93
f 36/58/96 35/56/94 10/59/93
f 34/49/92 36/58/96 10/59/93
s 12
f 23/54/82 40/55/81 38/61/97 9/60/98
s 13
f 41/57/85 39/62/99 38/61/100 40/55/86
s 14
f 42/50/89 37/63/101 39/62/102 41/57/90
s 11
f 27/51/77 8/64/103 37/63/104 42/50/78
