# This file uses centimeters as units for non-parametric coordinates.

mtllib trashcanFIX.mtl
g default
v 0.068694 2.616986 2.774440
v 0.068694 2.616986 4.241590
v 0.068694 4.616986 2.508015
v 0.068694 4.616986 4.508015
v 0.068694 2.616986 3.508015
v 0.068694 4.823406 2.682220
v 0.068694 4.823406 4.333809
v 0.068694 4.573256 2.382302
v 0.068694 4.573256 4.633727
v 0.068694 4.823406 3.508015
v -0.514540 2.616986 2.989299
v -0.514540 2.616986 4.026731
v -0.729399 2.616986 3.508015
v -0.569718 4.616986 2.800908
v -0.569718 4.616986 4.215122
v -0.862612 4.616986 3.508015
v -0.596496 4.823406 2.924090
v -0.596496 4.823406 4.091940
v -0.838365 4.823406 3.508015
v -0.744164 4.573256 2.712016
v -0.744164 4.573256 4.304014
v -1.073878 4.573256 3.508015
v 0.068694 4.731468 4.582320
v -0.698816 4.731468 4.267663
v -1.013473 4.731468 3.508015
v -0.698816 4.731468 2.748366
v 0.068694 4.731468 2.433710
v 0.651928 2.616986 2.989299
v 0.651928 2.616986 4.026731
v 0.866787 2.616986 3.508015
v 0.707107 4.616986 2.800908
v 0.707107 4.616986 4.215122
v 1.000000 4.616986 3.508015
v 0.733884 4.823406 2.924090
v 0.733884 4.823406 4.091940
v 0.975754 4.823406 3.508015
v 0.881552 4.573256 2.712016
v 0.881553 4.573256 4.304014
v 1.211266 4.573256 3.508015
v 0.836205 4.731468 4.267663
v 1.150861 4.731468 3.508015
v 0.836205 4.731468 2.748366
vt 0.141494 0.445374
vt 0.181244 0.445374
vt 0.199078 0.573638
vt 0.154494 0.573638
vt 0.030156 0.445374
vt 0.069906 0.445374
vt 0.056906 0.573638
vt 0.012322 0.573638
vt 0.105700 0.445374
vt 0.105700 0.573638
vt 0.206743 0.575802
vt 0.176306 0.650672
vt 0.106298 0.575802
vt 0.037229 0.653654
vt 0.005358 0.575802
vt 0.106298 0.681868
vt 0.153081 0.626943
vt 0.177443 0.650730
vt 0.208011 0.580803
vt 0.174249 0.575802
vt 0.037852 0.575802
vt 0.004431 0.581000
vt 0.036021 0.653681
vt 0.059020 0.626155
vt 0.106414 0.683448
vt 0.106050 0.648433
vt 0.106050 0.575802
vt 0.019802 0.574882
vt 0.045217 0.639422
vt 0.106133 0.666404
vt 0.167650 0.639867
vt 0.192287 0.574883
vt 0.141494 0.445374
vt 0.181244 0.445374
vt 0.199078 0.573638
vt 0.154494 0.573638
vt 0.030156 0.445374
vt 0.069906 0.445374
vt 0.056906 0.573638
vt 0.012322 0.573638
vt 0.105700 0.445374
vt 0.105700 0.573638
vt 0.206743 0.575802
vt 0.176306 0.650672
vt 0.106298 0.575802
vt 0.037229 0.653654
vt 0.005358 0.575802
vt 0.106298 0.681868
vt 0.153081 0.626943
vt 0.167650 0.639867
vt 0.192287 0.574883
vt 0.174249 0.575802
vt 0.037852 0.575802
vt 0.019802 0.574882
vt 0.045217 0.639422
vt 0.059020 0.626155
vt 0.106133 0.666404
vt 0.106050 0.648433
vt 0.106050 0.575802
vt 0.004431 0.581000
vt 0.036021 0.653681
vt 0.106414 0.683448
vt 0.177443 0.650730
vt 0.208011 0.580803
vn -0.381486 -0.109626 -0.917851
vn -0.381486 -0.109626 -0.917851
vn -0.381486 -0.109626 -0.917851
vn -0.381486 -0.109626 -0.917851
vn -0.381486 -0.109626 0.917851
vn -0.381486 -0.109626 0.917851
vn -0.381486 -0.109626 0.917851
vn -0.381486 -0.109626 0.917851
vn -0.922135 -0.061420 0.381961
vn -0.922135 -0.061420 0.381961
vn -0.922135 -0.061420 0.381961
vn -0.922135 -0.061420 0.381961
vn -0.922135 -0.061420 -0.381961
vn -0.922135 -0.061420 -0.381961
vn -0.922135 -0.061420 -0.381961
vn -0.922135 -0.061420 -0.381961
vn 0.000000 -1.000000 0.000000
vn 0.000000 -1.000000 0.000000
vn 0.000000 -1.000000 0.000000
vn 0.000000 -1.000000 -0.000000
vn 0.000000 -1.000000 0.000000
vn 0.000000 -1.000000 0.000000
vn 0.000000 -1.000000 0.000000
vn 0.000000 -1.000000 0.000000
vn 0.000000 -1.000000 -0.000000
vn 0.000000 -1.000000 0.000000
vn 0.000000 -1.000000 0.000000
vn 0.000000 -1.000000 0.000000
vn -0.141669 0.920281 -0.364709
vn -0.141670 0.920281 -0.364709
vn -0.282131 0.654957 -0.701024
vn -0.273102 0.680859 -0.679593
vn -0.141669 0.920281 0.364709
vn -0.141669 0.920281 0.364709
vn -0.273102 0.680858 0.679594
vn -0.282131 0.654956 0.701024
vn -0.456475 0.869414 0.189078
vn -0.456475 0.869414 0.189078
vn -0.747914 0.587070 0.309796
vn -0.765846 0.559328 0.317224
vn -0.456475 0.869414 -0.189078
vn -0.456475 0.869414 -0.189078
vn -0.765846 0.559328 -0.317224
vn -0.747914 0.587070 -0.309796
vn 0.000000 1.000000 0.000000
vn 0.000000 1.000000 0.000000
vn 0.000000 1.000000 0.000000
vn 0.000000 1.000000 0.000000
vn 0.000000 1.000000 0.000000
vn 0.000000 1.000000 0.000000
vn 0.000000 1.000000 0.000000
vn 0.000000 1.000000 0.000000
vn 0.000000 1.000000 0.000000
vn 0.000000 1.000000 0.000000
vn 0.000000 1.000000 0.000000
vn 0.000000 1.000000 0.000000
vn -0.282131 0.654956 0.701024
vn -0.273102 0.680858 0.679594
vn -0.360531 0.296903 0.884232
vn -0.360531 0.296904 0.884232
vn -0.747914 0.587070 0.309796
vn -0.871266 0.332646 0.360890
vn -0.871266 0.332646 0.360890
vn -0.765846 0.559328 0.317224
vn -0.765846 0.559328 -0.317224
vn -0.871266 0.332645 -0.360890
vn -0.871266 0.332645 -0.360890
vn -0.747914 0.587070 -0.309796
vn -0.282131 0.654957 -0.701024
vn -0.360531 0.296905 -0.884231
vn -0.360531 0.296905 -0.884231
vn -0.273102 0.680859 -0.679593
vn 0.381486 -0.109626 -0.917851
vn 0.381486 -0.109626 -0.917851
vn 0.381486 -0.109626 -0.917851
vn 0.381486 -0.109626 -0.917851
vn 0.381486 -0.109626 0.917851
vn 0.381486 -0.109626 0.917851
vn 0.381486 -0.109626 0.917851
vn 0.381486 -0.109626 0.917851
vn 0.922135 -0.061420 0.381961
vn 0.922135 -0.061420 0.381961
vn 0.922135 -0.061420 0.381961
vn 0.922135 -0.061420 0.381961
vn 0.922135 -0.061420 -0.381961
vn 0.922135 -0.061420 -0.381961
vn 0.922135 -0.061420 -0.381961
vn 0.922135 -0.061420 -0.381961
vn 0.000000 -1.000000 0.000000
vn 0.000000 -1.000000 0.000000
vn 0.000000 -1.000000 0.000000
vn 0.000000 -1.000000 0.000000
vn 0.000000 -1.000000 0.000000
vn 0.000000 -1.000000 0.000000
vn 0.000000 -1.000000 0.000000
vn 0.000000 -1.000000 0.000000
vn 0.000000 -1.000000 0.000000
vn 0.000000 -1.000000 0.000000
vn 0.000000 -1.000000 0.000000
vn 0.000000 -1.000000 0.000000
vn 0.141670 0.920281 -0.364709
vn 0.273102 0.680859 -0.679593
vn 0.282131 0.654957 -0.701023
vn 0.141670 0.920281 -0.364709
vn 0.141669 0.920281 0.364709
vn 0.282131 0.654956 0.701024
vn 0.273102 0.680858 0.679594
vn 0.141669 0.920281 0.364709
vn 0.456475 0.869414 0.189078
vn 0.765847 0.559328 0.317223
vn 0.747914 0.587070 0.309795
vn 0.456475 0.869414 0.189078
vn 0.456475 0.869414 -0.189078
vn 0.747914 0.587070 -0.309795
vn 0.765847 0.559328 -0.317223
vn 0.456475 0.869414 -0.189078
vn 0.000000 1.000000 0.000000
vn 0.000000 1.000000 -0.000000
vn 0.000000 1.000000 0.000000
vn 0.000000 1.000000 -0.000000
vn 0.000000 1.000000 -0.000000
vn 0.000000 1.000000 0.000000
vn 0.000000 1.000000 0.000000
vn 0.000000 1.000000 -0.000000
vn 0.000000 1.000000 -0.000000
vn 0.000000 1.000000 0.000000
vn 0.000000 1.000000 -0.000000
vn 0.000000 1.000000 0.000000
vn 0.282131 0.654956 0.701024
vn 0.360531 0.296904 0.884232
vn 0.360531 0.296904 0.884232
vn 0.273102 0.680858 0.679594
vn 0.747914 0.587070 0.309795
vn 0.765847 0.559328 0.317223
vn 0.871267 0.332646 0.360890
vn 0.871267 0.332646 0.360890
vn 0.765847 0.559328 -0.317223
vn 0.747914 0.587070 -0.309795
vn 0.871267 0.332645 -0.360890
vn 0.871267 0.332645 -0.360890
vn 0.282131 0.654957 -0.701023
vn 0.273102 0.680859 -0.679593
vn 0.360531 0.296905 -0.884231
vn 0.360531 0.296905 -0.884231
s off
g polySurface8
usemtl lambert3SG
f 11/1/1 14/4/2 3/3/3 1/2/4
f 2/5/5 4/8/6 15/7/7 12/6/8
f 12/6/9 15/7/10 16/10/11 13/9/12
f 13/9/13 16/10/14 14/4/15 11/1/16
f 1/11/17 5/13/18 11/12/19
f 12/14/20 5/13/21 2/15/22
f 13/16/23 5/13/24 12/14/25
f 11/12/26 5/13/27 13/16/28
f 17/17/29 6/20/30 27/32/31 26/31/32
f 7/21/33 18/24/34 24/29/35 23/28/36
f 18/24/37 19/26/38 25/30/39 24/29/40
f 19/26/41 17/17/42 26/31/43 25/30/44
f 6/20/45 17/17/46 10/27/47
f 18/24/48 7/21/49 10/27/50
f 19/26/51 18/24/52 10/27/53
f 17/17/54 19/26/55 10/27/56
f 23/28/57 24/29/58 21/23/59 9/22/60
f 25/30/61 22/25/62 21/23/63 24/29/64
f 26/31/65 20/18/66 22/25/67 25/30/68
f 27/32/69 8/19/70 20/18/71 26/31/72
f 28/33/73 1/34/74 3/35/75 31/36/76
f 2/37/77 29/38/78 32/39/79 4/40/80
f 29/38/81 30/41/82 33/42/83 32/39/84
f 30/41/85 28/33/86 31/36/87 33/42/88
f 1/43/89 28/44/90 5/45/91
f 29/46/92 2/47/93 5/45/94
f 30/48/95 29/46/96 5/45/97
f 28/44/98 30/48/99 5/45/100
f 34/49/101 42/50/102 27/51/103 6/52/104
f 7/53/105 23/54/106 40/55/107 35/56/108
f 35/56/109 40/55/110 41/57/111 36/58/112
f 36/58/113 41/57/114 42/50/115 34/49/116
f 6/52/117 10/59/118 34/49/119
f 35/56/120 10/59/121 7/53/122
f 36/58/123 10/59/124 35/56/125
f 34/49/126 10/59/127 36/58/128
f 23/54/129 9/60/130 38/61/131 40/55/132
f 41/57/133 40/55/134 38/61/135 39/62/136
f 42/50/137 41/57/138 39/62/139 37/63/140
f 27/51/141 42/50/142 37/63/143 8/64/144
