# This file uses centimeters as units for non-parametric coordinates.

mtllib Wall_Floor.mtl
g default
v 14.429312 -0.706040 41.477345
v -14.429312 0.706040 41.477345
v 14.429312 0.706040 41.477345
v -14.429312 0.706040 -41.477345
v 14.429312 0.706040 -41.477345
v 14.429312 -0.706040 -41.477345
v -14.158892 0.543811 -41.477345
v -14.158892 29.402435 -41.477345
v -14.158892 0.543811 41.477345
v -14.158892 29.402435 41.477345
vt -0.000000 0.095402
vt 0.000000 0.462001
vt 1.000000 0.095402
vt 0.000000 0.114117
vt 1.000000 0.114117
vt 1.000000 0.112424
vt -0.000000 0.112424
vt 1.000000 0.462001
vt 1.000000 0.631809
vt 1.000000 0.969270
vt 0.000000 0.969270
vt 0.000000 0.631809
vn 0.000000 1.000000 0.000000
vn 0.000000 1.000000 0.000000
vn 0.000000 1.000000 0.000000
vn 0.000000 1.000000 0.000000
vn 1.000000 0.000000 0.000000
vn 1.000000 0.000000 0.000000
vn 1.000000 0.000000 0.000000
vn 1.000000 0.000000 0.000000
vn 1.000000 0.000000 0.000000
vn 1.000000 0.000000 0.000000
vn 1.000000 0.000000 0.000000
vn 1.000000 0.000000 0.000000
s off
g polySurface11
usemtl lambert2SG
f 2/2/1 3/4/2 5/5/3 4/8/4
f 1/1/5 6/3/6 5/6/7 3/7/8
f 7/9/9 8/10/10 10/11/11 9/12/12
